<mxfile host="app.diagrams.net" modified="2023-12-10T07:51:37.072Z" agent="Mozilla/5.0 (Windows NT 10.0; Win64; x64) AppleWebKit/537.36 (KHTML, like Gecko) Chrome/119.0.0.0 Safari/537.36" etag="wyA5SIIPl-dYLcvls5Hq" version="22.1.7" type="github">
  <diagram id="w9E6E-FHAbV4ZNBI3FBN" name="Page-1">
    <mxGraphModel dx="2607" dy="375" grid="1" gridSize="10" guides="1" tooltips="1" connect="1" arrows="1" fold="0" page="1" pageScale="1" pageWidth="826" pageHeight="1169" background="#ffffff" math="0" shadow="0">
      <root>
        <mxCell id="3f3fe580f65d2139-0" />
        <mxCell id="3f3fe580f65d2139-1" parent="3f3fe580f65d2139-0" />
        <object label="Subnet&lt;br&gt;%subnet%.x" placeholders="1" subnet="192.168.1" id="1fc166168f6333eb-0">
          <mxCell style="ellipse;whiteSpace=wrap;html=1;strokeWidth=2;fillColor=#F0F3FF;fontSize=15;strokeColor=none;container=1;verticalAlign=top;spacingBottom=0;spacingTop=4;fontStyle=1;fontColor=#7EA6E0;opacity=40;" parent="3f3fe580f65d2139-1" vertex="1">
            <mxGeometry x="130" y="70" width="409" height="320" as="geometry" />
          </mxCell>
        </object>
        <object label="%subnet%.2" placeholders="1" id="1fc166168f6333eb-3">
          <mxCell style="image;html=1;image=img/lib/clip_art/computers/Monitor_Tower_128x128.png;fontFamily=Helvetica;fontSize=12;fontColor=#0A3DA3;align=center;strokeWidth=2;fillColor=#EDF5FF;fontStyle=1;verticalAlign=bottom;strokeColor=none;labelBackgroundColor=none;labelBorderColor=none;labelPosition=center;verticalLabelPosition=top;" parent="1fc166168f6333eb-0" vertex="1">
            <mxGeometry x="147" y="80" width="115" height="79" as="geometry" />
          </mxCell>
        </object>
        <object label="%subnet%.3" placeholders="1" id="1fc166168f6333eb-4">
          <mxCell style="image;html=1;image=img/lib/clip_art/computers/Laptop_128x128.png;fontFamily=Helvetica;fontSize=12;fontColor=#0A3DA3;align=center;strokeWidth=2;fillColor=#EDF5FF;fontStyle=1;verticalAlign=bottom;strokeColor=none;labelBackgroundColor=none;labelBorderColor=none;labelPosition=center;verticalLabelPosition=top;" parent="1fc166168f6333eb-0" vertex="1">
            <mxGeometry x="45" y="80" width="80" height="80" as="geometry" />
          </mxCell>
        </object>
        <object label="%subnet%.1" placeholders="1" id="1fc166168f6333eb-6">
          <mxCell style="image;html=1;image=img/lib/clip_art/computers/Mainframe_128x128.png;strokeColor=none;strokeWidth=2;fillColor=#EDF5FF;fontSize=12;fontColor=#0A3DA3;labelBackgroundColor=none;fontStyle=1;labelBorderColor=none;labelPosition=center;verticalLabelPosition=top;align=center;verticalAlign=bottom;" parent="1fc166168f6333eb-0" vertex="1">
            <mxGeometry x="281" y="79" width="80" height="80" as="geometry" />
          </mxCell>
        </object>
        <mxCell id="VTlOYYRppFb0Mr9HSd6j-6" value="" style="sketch=0;points=[[0.015,0.015,0],[0.985,0.015,0],[0.985,0.985,0],[0.015,0.985,0],[0.25,0,0],[0.5,0,0],[0.75,0,0],[1,0.25,0],[1,0.5,0],[1,0.75,0],[0.75,1,0],[0.5,1,0],[0.25,1,0],[0,0.75,0],[0,0.5,0],[0,0.25,0]];verticalLabelPosition=bottom;html=1;verticalAlign=top;aspect=fixed;align=center;pointerEvents=1;shape=mxgraph.cisco19.rect;prIcon=secure_catalyst_switch_color2;fillColor=#FAFAFA;strokeColor=#005073;" vertex="1" parent="1fc166168f6333eb-0">
          <mxGeometry x="180" y="214" width="50" height="50" as="geometry" />
        </mxCell>
        <mxCell id="1fc166168f6333eb-8" style="edgeStyle=none;curved=1;html=1;strokeWidth=2;fontSize=12;endArrow=none;endFill=0;exitX=0.5;exitY=0.5;exitPerimeter=0;rounded=0;fontColor=#0A3DA3;strokeColor=#0A3DA3;entryX=0.688;entryY=0.762;entryPerimeter=0;" parent="3f3fe580f65d2139-1" edge="1">
          <mxGeometry x="350" y="320" as="geometry">
            <mxPoint x="-234.96000000000004" y="324.004" as="targetPoint" />
            <mxPoint x="-490" y="446.5" as="sourcePoint" />
          </mxGeometry>
        </mxCell>
        <mxCell id="VTlOYYRppFb0Mr9HSd6j-9" value="Text" style="edgeLabel;html=1;align=center;verticalAlign=middle;resizable=0;points=[];" vertex="1" connectable="0" parent="1fc166168f6333eb-8">
          <mxGeometry relative="1" as="geometry">
            <mxPoint x="-52" y="29" as="offset" />
          </mxGeometry>
        </mxCell>
        <object label="Subnet&lt;br&gt;%subnet%.x" placeholders="1" subnet="192.168.1" id="l_WxdA44pgeAYW8TFCSK-0">
          <mxCell style="ellipse;whiteSpace=wrap;html=1;strokeWidth=2;fillColor=#F0F3FF;fontSize=15;strokeColor=none;container=1;verticalAlign=top;spacingBottom=0;spacingTop=4;fontStyle=1;fontColor=#7EA6E0;opacity=40;" parent="3f3fe580f65d2139-1" vertex="1">
            <mxGeometry x="770" y="70" width="349" height="310" as="geometry" />
          </mxCell>
        </object>
        <mxCell id="l_WxdA44pgeAYW8TFCSK-1" value="" style="edgeStyle=orthogonalEdgeStyle;rounded=0;html=1;endArrow=none;endFill=0;strokeColor=#0A3DA3;strokeWidth=2;fontSize=12;fontColor=#0A3DA3;exitX=0.5;exitY=0.5;entryX=0.504;entryY=0.5;entryPerimeter=0;exitPerimeter=0;" parent="l_WxdA44pgeAYW8TFCSK-0" source="l_WxdA44pgeAYW8TFCSK-5" target="l_WxdA44pgeAYW8TFCSK-3" edge="1">
          <mxGeometry relative="1" as="geometry">
            <Array as="points">
              <mxPoint x="174.92665036674816" y="178.25" />
              <mxPoint x="174.92665036674816" y="178.25" />
            </Array>
          </mxGeometry>
        </mxCell>
        <mxCell id="l_WxdA44pgeAYW8TFCSK-2" style="edgeStyle=orthogonalEdgeStyle;html=1;endArrow=none;endFill=0;strokeWidth=2;fontSize=12;fontColor=#0A3DA3;strokeColor=#0A3DA3;rounded=0;entryX=0.5;entryY=0.5;exitX=0.5;exitY=0.5;exitPerimeter=0;entryPerimeter=0;" parent="l_WxdA44pgeAYW8TFCSK-0" source="l_WxdA44pgeAYW8TFCSK-4" target="l_WxdA44pgeAYW8TFCSK-5" edge="1">
          <mxGeometry relative="1" as="geometry">
            <mxPoint x="-5.119804400977995" y="231.53125" as="targetPoint" />
            <Array as="points">
              <mxPoint x="72.53056234718827" y="184.0625" />
              <mxPoint x="174.92665036674816" y="184.0625" />
            </Array>
          </mxGeometry>
        </mxCell>
        <object label="%subnet%.2" placeholders="1" id="l_WxdA44pgeAYW8TFCSK-3">
          <mxCell style="image;html=1;image=img/lib/clip_art/computers/Monitor_Tower_128x128.png;fontFamily=Helvetica;fontSize=12;fontColor=#0A3DA3;align=center;strokeWidth=2;fillColor=#EDF5FF;fontStyle=1;verticalAlign=bottom;strokeColor=none;labelBackgroundColor=none;labelBorderColor=none;labelPosition=center;verticalLabelPosition=top;" parent="l_WxdA44pgeAYW8TFCSK-0" vertex="1">
            <mxGeometry x="125.43520782396088" y="77.5" width="98.12958435207824" height="76.53125" as="geometry" />
          </mxCell>
        </object>
        <object label="%subnet%.3" placeholders="1" id="l_WxdA44pgeAYW8TFCSK-4">
          <mxCell style="image;html=1;image=img/lib/clip_art/computers/Laptop_128x128.png;fontFamily=Helvetica;fontSize=12;fontColor=#0A3DA3;align=center;strokeWidth=2;fillColor=#EDF5FF;fontStyle=1;verticalAlign=bottom;strokeColor=none;labelBackgroundColor=none;labelBorderColor=none;labelPosition=center;verticalLabelPosition=top;" parent="l_WxdA44pgeAYW8TFCSK-0" vertex="1">
            <mxGeometry x="38.39853300733496" y="77.5" width="68.26405867970661" height="77.5" as="geometry" />
          </mxCell>
        </object>
        <mxCell id="l_WxdA44pgeAYW8TFCSK-5" value="Network Switch&lt;br&gt;" style="image;html=1;image=img/lib/clip_art/networking/Switch_128x128.png;strokeColor=none;strokeWidth=2;fillColor=#EDF5FF;fontSize=12;labelBackgroundColor=none;fontStyle=1;fontColor=#0A3DA3;" parent="l_WxdA44pgeAYW8TFCSK-0" vertex="1">
          <mxGeometry x="140.79462102689487" y="211.1875" width="68.26405867970661" height="40.6875" as="geometry" />
        </mxCell>
        <object label="%subnet%.1" placeholders="1" id="l_WxdA44pgeAYW8TFCSK-6">
          <mxCell style="image;html=1;image=img/lib/clip_art/computers/Mainframe_128x128.png;strokeColor=none;strokeWidth=2;fillColor=#EDF5FF;fontSize=12;fontColor=#0A3DA3;labelBackgroundColor=none;fontStyle=1;labelBorderColor=none;labelPosition=center;verticalLabelPosition=top;align=center;verticalAlign=bottom;" parent="l_WxdA44pgeAYW8TFCSK-0" vertex="1">
            <mxGeometry x="239.77750611246944" y="76.53125" width="68.26405867970661" height="77.5" as="geometry" />
          </mxCell>
        </object>
        <mxCell id="l_WxdA44pgeAYW8TFCSK-7" value="Test" style="edgeStyle=orthogonalEdgeStyle;html=1;endArrow=none;endFill=0;strokeWidth=2;fontSize=12;fontColor=#0A3DA3;strokeColor=#0A3DA3;rounded=0;exitX=0.5;exitY=0.5;exitPerimeter=0;entryX=0.5;entryY=0;" parent="l_WxdA44pgeAYW8TFCSK-0" source="l_WxdA44pgeAYW8TFCSK-6" target="l_WxdA44pgeAYW8TFCSK-5" edge="1">
          <mxGeometry x="0.0419" relative="1" as="geometry">
            <mxPoint x="174.92665036674816" y="203.4375" as="targetPoint" />
            <Array as="points">
              <mxPoint x="273.90953545232276" y="184.0625" />
              <mxPoint x="174.92665036674816" y="184.0625" />
            </Array>
            <mxPoint as="offset" />
          </mxGeometry>
        </mxCell>
        <mxCell id="VTlOYYRppFb0Mr9HSd6j-0" value="" style="sketch=0;points=[[0.015,0.015,0],[0.985,0.015,0],[0.985,0.985,0],[0.015,0.985,0],[0.25,0,0],[0.5,0,0],[0.75,0,0],[1,0.25,0],[1,0.5,0],[1,0.75,0],[0.75,1,0],[0.5,1,0],[0.25,1,0],[0,0.75,0],[0,0.5,0],[0,0.25,0]];verticalLabelPosition=bottom;html=1;verticalAlign=top;aspect=fixed;align=center;pointerEvents=1;shape=mxgraph.cisco19.rect;prIcon=next_generation_intrusion_prevention_system;fillColor=#FAFAFA;strokeColor=#005073;" vertex="1" parent="3f3fe580f65d2139-1">
          <mxGeometry x="-70" y="440" width="50" height="50" as="geometry" />
        </mxCell>
        <mxCell id="VTlOYYRppFb0Mr9HSd6j-10" value="" style="edgeStyle=orthogonalEdgeStyle;rounded=0;orthogonalLoop=1;jettySize=auto;html=1;" edge="1" parent="3f3fe580f65d2139-1" source="VTlOYYRppFb0Mr9HSd6j-1" target="VTlOYYRppFb0Mr9HSd6j-0">
          <mxGeometry relative="1" as="geometry" />
        </mxCell>
        <mxCell id="VTlOYYRppFb0Mr9HSd6j-1" value="" style="sketch=0;points=[[0.015,0.015,0],[0.985,0.015,0],[0.985,0.985,0],[0.015,0.985,0],[0.25,0,0],[0.5,0,0],[0.75,0,0],[1,0.25,0],[1,0.5,0],[1,0.75,0],[0.75,1,0],[0.5,1,0],[0.25,1,0],[0,0.75,0],[0,0.5,0],[0,0.25,0]];verticalLabelPosition=bottom;html=1;verticalAlign=top;aspect=fixed;align=center;pointerEvents=1;shape=mxgraph.cisco19.server;fillColor=#005073;strokeColor=none;" vertex="1" parent="3f3fe580f65d2139-1">
          <mxGeometry x="-60" y="550" width="27.500000000000004" height="50" as="geometry" />
        </mxCell>
        <mxCell id="VTlOYYRppFb0Mr9HSd6j-2" value="" style="sketch=0;points=[[0.015,0.015,0],[0.985,0.015,0],[0.985,0.985,0],[0.015,0.985,0],[0.25,0,0],[0.5,0,0],[0.75,0,0],[1,0.25,0],[1,0.5,0],[1,0.75,0],[0.75,1,0],[0.5,1,0],[0.25,1,0],[0,0.75,0],[0,0.5,0],[0,0.25,0]];verticalLabelPosition=bottom;html=1;verticalAlign=top;aspect=fixed;align=center;pointerEvents=1;shape=mxgraph.cisco19.rect;prIcon=database_relational;fillColor=#FAFAFA;strokeColor=#005073;" vertex="1" parent="3f3fe580f65d2139-1">
          <mxGeometry x="-71.25" y="650" width="50" height="50" as="geometry" />
        </mxCell>
        <mxCell id="VTlOYYRppFb0Mr9HSd6j-4" value="" style="edgeStyle=orthogonalEdgeStyle;rounded=0;orthogonalLoop=1;jettySize=auto;html=1;" edge="1" parent="3f3fe580f65d2139-1" source="VTlOYYRppFb0Mr9HSd6j-3" target="VTlOYYRppFb0Mr9HSd6j-1">
          <mxGeometry relative="1" as="geometry" />
        </mxCell>
        <mxCell id="VTlOYYRppFb0Mr9HSd6j-3" value="" style="sketch=0;points=[[0.015,0.015,0],[0.985,0.015,0],[0.985,0.985,0],[0.015,0.985,0],[0.25,0,0],[0.5,0,0],[0.75,0,0],[1,0.25,0],[1,0.5,0],[1,0.75,0],[0.75,1,0],[0.5,1,0],[0.25,1,0],[0,0.75,0],[0,0.5,0],[0,0.25,0]];verticalLabelPosition=bottom;html=1;verticalAlign=top;aspect=fixed;align=center;pointerEvents=1;shape=mxgraph.cisco19.rect;prIcon=nam_virtual_service_blade;fillColor=#FAFAFA;strokeColor=#005073;" vertex="1" parent="3f3fe580f65d2139-1">
          <mxGeometry x="66" y="550" width="64" height="50" as="geometry" />
        </mxCell>
        <mxCell id="VTlOYYRppFb0Mr9HSd6j-5" value="" style="sketch=0;points=[[0.015,0.015,0],[0.985,0.015,0],[0.985,0.985,0],[0.015,0.985,0],[0.25,0,0],[0.5,0,0],[0.75,0,0],[1,0.25,0],[1,0.5,0],[1,0.75,0],[0.75,1,0],[0.5,1,0],[0.25,1,0],[0,0.75,0],[0,0.5,0],[0,0.25,0]];verticalLabelPosition=bottom;html=1;verticalAlign=top;aspect=fixed;align=center;pointerEvents=1;shape=mxgraph.cisco19.rect;prIcon=ups;fillColor=#FAFAFA;strokeColor=#005073;" vertex="1" parent="3f3fe580f65d2139-1">
          <mxGeometry x="-71.25" y="600" width="50" height="50" as="geometry" />
        </mxCell>
        <mxCell id="1fc166168f6333eb-1" value="" style="edgeStyle=orthogonalEdgeStyle;rounded=0;html=1;endArrow=none;endFill=0;strokeColor=#0A3DA3;strokeWidth=2;fontSize=12;fontColor=#0A3DA3;exitX=0.5;exitY=0.5;entryX=0.504;entryY=0.5;entryPerimeter=0;exitPerimeter=0;" parent="3f3fe580f65d2139-1" target="1fc166168f6333eb-3" edge="1">
          <mxGeometry relative="1" as="geometry">
            <Array as="points">
              <mxPoint x="335" y="254" />
              <mxPoint x="335" y="254" />
            </Array>
            <mxPoint x="-250" y="313" as="sourcePoint" />
          </mxGeometry>
        </mxCell>
        <mxCell id="1fc166168f6333eb-2" style="edgeStyle=orthogonalEdgeStyle;html=1;endArrow=none;endFill=0;strokeWidth=2;fontSize=12;fontColor=#0A3DA3;strokeColor=#0A3DA3;rounded=0;exitX=0.5;exitY=0.5;exitPerimeter=0;" parent="3f3fe580f65d2139-1" source="1fc166168f6333eb-4" edge="1">
          <mxGeometry relative="1" as="geometry">
            <mxPoint x="-230" y="330" as="targetPoint" />
            <Array as="points">
              <mxPoint x="215" y="260" />
              <mxPoint x="335" y="260" />
            </Array>
          </mxGeometry>
        </mxCell>
        <mxCell id="VTlOYYRppFb0Mr9HSd6j-7" value="" style="sketch=0;points=[[0.5,0,0],[1,0.5,0],[0.5,1,0],[0,0.5,0],[0.145,0.145,0],[0.8555,0.145,0],[0.855,0.8555,0],[0.145,0.855,0]];verticalLabelPosition=bottom;html=1;verticalAlign=top;aspect=fixed;align=center;pointerEvents=1;shape=mxgraph.cisco19.rect;prIcon=asr_9000;fillColor=#FAFAFA;strokeColor=#005073;" vertex="1" parent="3f3fe580f65d2139-1">
          <mxGeometry x="-830" y="210" width="50" height="50" as="geometry" />
        </mxCell>
        <mxCell id="VTlOYYRppFb0Mr9HSd6j-8" value="" style="points=[[0.02,0.015,0],[0.5,0,0],[0.98,0.015,0],[1,0.38,0],[0.895,0.98,0],[0.5,1,0],[0.105,0.98,0],[0,0.38,0]];verticalLabelPosition=bottom;sketch=0;html=1;verticalAlign=top;aspect=fixed;align=center;pointerEvents=1;shape=mxgraph.cisco19.secure_endpoint_pc;fillColor=#005073;strokeColor=none;" vertex="1" parent="3f3fe580f65d2139-1">
          <mxGeometry x="-413" y="550" width="50" height="40" as="geometry" />
        </mxCell>
      </root>
    </mxGraphModel>
  </diagram>
</mxfile>
